<?xml version="1.0" encoding="UTF-8" standalone="no"?>
<!-- Created with Inkscape (http://www.inkscape.org/) -->

<svg
   width="115.29049mm"
   height="132.01561mm"
   viewBox="0 0 115.29049 132.01561"
   version="1.1"
   id="svg1"
   xmlns="http://www.w3.org/2000/svg"
   xmlns:svg="http://www.w3.org/2000/svg">
  <defs
     id="defs1" />
  <g
     id="layer1"
     style="display:inline;opacity:1"
     transform="translate(-56.928228,-16.013105)">
    <circle
       style="fill:#ffffff;fill-opacity:1;stroke:#000000;stroke-width:0.4;stroke-dasharray:none;stroke-opacity:1"
       id="path2"
       cx="107.12823"
       cy="66.213104"
       r="50" />
    <circle
       style="fill:#ffd710;fill-opacity:1;stroke:#000000;stroke-width:0.4;stroke-dasharray:none;stroke-opacity:1"
       id="path2-9"
       cx="107.42534"
       cy="66.205292"
       r="43" />
    <path
       style="fill:none;fill-opacity:1;stroke:#000000;stroke-width:0.2"
       d="M 65.554004,56.423721 C 64.743171,68.102956 70.819775,76.29556 70.819775,76.29556"
       id="path13-4" />
    <circle
       style="fill:none;stroke:#000000;stroke-width:0.4;stroke-dasharray:none;stroke-opacity:1"
       id="path2-9-9"
       cx="107.47661"
       cy="66.186676"
       r="38" />
    <path
       style="fill:none;fill-opacity:1;stroke:#000000;stroke-width:0.2"
       d="m 70.795325,56.127568 c -6.472273,9.755593 -5.233704,19.88031 -5.233704,19.88031"
       id="path13" />
    <path
       style="fill:none;fill-opacity:1;stroke:#000000;stroke-width:0.2"
       d="M 117.22021,24.366446 C 105.54327,23.523263 97.333856,29.577144 97.333856,29.577144"
       id="path13-4-5" />
    <path
       style="fill:none;fill-opacity:1;stroke:#000000;stroke-width:0.2"
       d="M 117.50184,29.608566 C 107.76422,23.109294 97.636104,24.319811 97.636104,24.319811"
       id="path13-5" />
    <path
       style="fill:none;fill-opacity:1;stroke:#000000;stroke-width:0.2"
       d="m 149.30699,75.685047 c 0.77794,-11.681472 -5.32171,-19.856934 -5.32171,-19.856934"
       id="path13-4-7" />
    <path
       style="fill:none;fill-opacity:1;stroke:#000000;stroke-width:0.2"
       d="m 144.06651,75.995956 c 6.44479,-9.773777 5.17772,-19.894967 5.17772,-19.894967"
       id="path13-7" />
    <path
       style="fill:none;fill-opacity:1;stroke:#000000;stroke-width:0.2"
       d="m 97.537324,108.07286 c 11.681676,0.77531 19.855736,-5.3262 19.855736,-5.3262"
       id="path13-4-1" />
    <path
       style="fill:none;fill-opacity:1;stroke:#000000;stroke-width:0.2"
       d="m 97.225233,102.83246 c 9.775237,6.44257 19.896147,5.17321 19.896147,5.17321"
       id="path13-2" />
    <path
       style="fill:none;fill-opacity:1;stroke:#000000;stroke-width:0.2"
       d="m 83.69821,30.28605 c -8.627061,7.914277 -9.85796,18.039926 -9.85796,18.039926"
       id="path13-4-3" />
    <path
       style="fill:none;fill-opacity:1;stroke:#000000;stroke-width:0.2"
       d="M 87.704224,33.678835 C 76.294278,36.300868 70.22388,44.498076 70.22388,44.498076"
       id="path13-6" />
    <path
       style="fill:none;fill-opacity:1;stroke:#000000;stroke-width:0.2"
       d="M 143.70265,43.236815 C 135.96707,34.44916 125.86881,33.010725 125.86881,33.010725"
       id="path13-4-0" />
    <path
       style="fill:none;fill-opacity:1;stroke:#000000;stroke-width:0.2"
       d="M 140.22837,47.17236 C 137.84103,35.711012 129.77012,29.473674 129.77012,29.473674"
       id="path13-46" />
    <path
       style="fill:none;fill-opacity:1;stroke:#000000;stroke-width:0.2"
       d="m 69.636382,86.511447 c 7.090946,9.31561 17.06131,11.46865 17.06131,11.46865"
       id="path13-4-06" />
    <path
       style="fill:none;fill-opacity:1;stroke:#000000;stroke-width:0.2"
       d="m 73.38179,82.832984 c 1.566074,11.602124 9.172897,18.397716 9.172897,18.397716"
       id="path13-9" />
    <path
       style="fill:none;fill-opacity:1;stroke:#000000;stroke-width:0.2"
       d="m 130.08642,102.75259 c 8.81354,-7.70611 10.28575,-17.799486 10.28575,-17.799486"
       id="path13-4-1-7" />
    <path
       style="fill:none;fill-opacity:1;stroke:#000000;stroke-width:0.2"
       d="m 126.16253,99.265141 c 11.46929,-2.348928 17.73362,-10.398908 17.73362,-10.398908"
       id="path13-2-1" />
    <ellipse
       style="fill:#ffffff;fill-opacity:1;stroke:none;stroke-width:0.2"
       id="path14"
       cx="107.45818"
       cy="66.183128"
       rx="37.850002"
       ry="37.849998" />
    <rect
       style="fill:#e5e5e5;fill-opacity:1;stroke:#000000;stroke-width:0.2"
       id="rect1"
       width="4.1293087"
       height="76.439255"
       x="116.79662"
       y="66.266777" />
    <rect
       style="fill:#ffffff;fill-opacity:1;stroke:#000000;stroke-width:0.2"
       id="rect2"
       width="6.1939626"
       height="76.439255"
       x="120.92518"
       y="66.266357" />
    <rect
       style="fill:#e5e5e5;fill-opacity:1;stroke:#000000;stroke-width:0.2"
       id="rect1-0"
       width="4.1291537"
       height="76.439255"
       x="127.11987"
       y="66.266777" />
    <rect
       style="fill:#fefefe;fill-opacity:1;stroke:#000000;stroke-width:0.2"
       id="rect4"
       width="16.90111"
       height="1.9712124"
       x="115.57178"
       y="142.74536" />
    <path
       style="fill:#fefefe;fill-opacity:1;stroke:#000000;stroke-width:0.2"
       d="m 115.57848,144.64019 c -0.94894,3.25319 -2.11688,3.28856 -2.11688,3.28856"
       id="path11" />
    <path
       style="fill:#fefefe;fill-opacity:1;stroke:#000000;stroke-width:0.2"
       d="m 132.47004,144.639 c 0.94896,3.25318 2.1169,3.28855 2.1169,3.28855"
       id="path11-8" />
    <path
       style="fill:#fefefe;fill-opacity:1;stroke:#000000;stroke-width:0.2"
       d="m 113.47108,147.92671 h 21.10551"
       id="path12" />
    <path
       style="fill:none;fill-rule:evenodd;stroke:#000000;stroke-width:0.314543;stroke-dasharray:none"
       id="path26"
       d="m 166.53724,86.115101 c 0.39148,0.08877 0.1393,0.611151 -0.0709,0.74067 -0.55025,0.339108 -1.20661,-0.120349 -1.39692,-0.653748 -0.32346,-0.906542 0.36598,-1.824875 1.23662,-2.053186 1.24939,-0.327632 2.45191,0.611982 2.70945,1.819504 0.33892,1.589153 -0.85783,3.082516 -2.40239,3.365702 -1.92784,0.353458 -3.71495,-1.103524 -4.02196,-2.98526 -0.3697,-2.266055 1.34913,-4.348455 3.56814,-4.678218 0.17493,-0.026 0.35141,-0.04153 0.52819,-0.04661"
       transform="matrix(0.69785531,0.18206028,-0.18714691,0.71735293,34.074337,-22.394781)" />
    <path
       style="mix-blend-mode:normal;fill:none;stroke:#000000;stroke-width:0.2;stroke-dasharray:none;stroke-opacity:1"
       d="m 134.60676,66.476562 c 32.74052,-0.06191 37.63886,3.937821 37.5095,18.304969 -0.0205,17.223449 -9.44478,18.692149 -38.33631,18.670549"
       id="path27" />
    <path
       style="fill:none;fill-rule:evenodd;stroke:#000000;stroke-width:0.361001;stroke-dasharray:none"
       id="path26-7"
       d="m 166.5483,86.11792 c 0.38893,0.110125 0.1161,0.625302 -0.10188,0.749687 -0.56599,0.322965 -1.21343,-0.158254 -1.38959,-0.702677 -0.29807,-0.921221 0.42091,-1.82492 1.30347,-2.029482 1.26397,-0.292966 2.44501,0.684144 2.66938,1.90426 0.29495,1.603883 -0.94732,3.06862 -2.50505,3.309277 -1.94283,0.300152 -3.69405,-1.210401 -3.94918,-3.105844 -0.13179,-0.97919 0.12563,-1.986474 0.68827,-2.795997"
       transform="matrix(0.32452692,0.54707877,-0.53330226,0.3517727,125.44949,-16.835329)" />
    <path
       style="mix-blend-mode:normal;fill:none;stroke:#000000;stroke-width:0.2;stroke-opacity:1"
       d="m 134.53483,68.26124 c 27.29386,-0.05437 33.68754,2.967464 33.57245,16.43416 -0.0177,15.63922 -9.38528,17.15992 -34.28503,17.14031"
       id="path27-9" />
    <path
       style="fill:none;fill-rule:evenodd;stroke:#000000;stroke-width:0.361001;stroke-dasharray:none"
       id="path26-7-0"
       d="m 166.5483,86.11792 c 0.38893,0.110125 0.1161,0.625302 -0.10188,0.749687 -0.56599,0.322965 -1.21343,-0.158254 -1.38959,-0.702677 -0.29807,-0.921221 0.42091,-1.82492 1.30347,-2.029482 1.26397,-0.292966 2.44501,0.684144 2.66938,1.90426 0.29495,1.603883 -0.94732,3.06862 -2.50505,3.309277 -1.94283,0.300152 -3.69405,-1.210401 -3.94918,-3.105844 -0.13179,-0.97919 0.12563,-1.986474 0.68827,-2.795997"
       transform="matrix(0.31069403,-0.55505147,-0.54196309,-0.33827701,128.51743,229.8313)" />
    <path
       style="fill:none;fill-opacity:0;stroke:#000000;stroke-width:0.23;stroke-dasharray:none;stroke-opacity:1"
       d="M 167.10417,147.12798 C 150.9242,131.62199 152.15621,112.10096 133.87952,110.98297"
       id="path53" />
    <path
       style="fill:none;fill-rule:evenodd;stroke:#000000;stroke-width:0.314543;stroke-dasharray:none"
       id="path26-3"
       d="m 166.53724,86.115101 c 0.39148,0.08877 0.1393,0.611151 -0.0709,0.74067 -0.55025,0.339108 -1.20661,-0.120349 -1.39692,-0.653748 -0.32346,-0.906542 0.36598,-1.824875 1.23662,-2.053186 1.24939,-0.327632 2.45191,0.611982 2.70945,1.819504 0.33892,1.589153 -0.85783,3.082516 -2.40239,3.365702 -1.92784,0.353458 -3.71495,-1.103524 -4.02196,-2.98526 -0.3697,-2.266055 1.34913,-4.348455 3.56814,-4.678218 0.17493,-0.026 0.35141,-0.04153 0.52819,-0.04661"
       transform="matrix(-0.55228326,-0.46382236,0.47678123,-0.5677137,220.1844,270.7226)" />
    <path
       style="fill:#ff0000;fill-opacity:0;stroke:#000000;stroke-width:0.23;stroke-dasharray:none;stroke-opacity:1"
       d="m 167.77582,145.14685 c -7.83272,-8.99189 -10.53771,-19.92125 -15.24807,-26.99334 -3.83677,-5.76051 -10.69939,-8.6203 -18.5063,-8.79217"
       id="path53-9" />
    <path
       style="fill:#000000;fill-opacity:0;stroke:none;stroke-width:0.755906;stroke-dasharray:none;stroke-opacity:1"
       d="m 637.71514,557.83495 c -1.85771,-0.12482 -3.73082,-0.76939 -5.37139,-1.84841 -0.54637,-0.35935 -0.979,-0.76572 -3.43883,-3.23005 -5.04451,-5.05378 -8.90455,-9.33012 -13.34815,-14.78774 -8.16831,-10.03232 -15.60468,-21.04564 -23.69585,-35.09375 -1.10049,-1.9107 -2.61092,-4.58489 -2.61092,-4.6226 0,-0.0185 2.86875,-0.0337 6.375,-0.0337 4.6774,0 6.375,0.0187 6.375,0.0702 0,0.1036 4.58803,9.29839 5.65645,11.336 7.83642,14.94498 15.4774,26.6405 24.19347,37.03125 0.59111,0.70469 1.24738,1.47812 1.45838,1.71875 0.211,0.24062 0.47062,0.58785 0.57693,0.77162 0.58099,1.00424 1.48184,1.83509 2.52102,2.32511 1.02421,0.48296 1.99573,0.64263 3.05336,0.50181 1.90663,-0.25385 3.42304,-1.42175 3.98257,-3.06729 0.18749,-0.55136 0.23276,-1.55902 0.0962,-2.14063 -0.2193,-0.93392 -0.71007,-1.59618 -1.45605,-1.96486 -0.41241,-0.20383 -0.52831,-0.23321 -0.91779,-0.23265 -0.53974,7.8e-4 -0.83759,0.0822 -1.28709,0.35203 -0.59933,0.35972 -0.87483,0.95712 -0.69403,1.50495 0.12263,0.37156 0.19148,0.3828 0.58332,0.0951 0.30876,-0.22666 0.34726,-0.27848 0.31748,-0.42737 -0.0275,-0.13737 0.002,-0.19496 0.15558,-0.30434 0.82387,-0.58665 1.75571,-0.26485 2.24121,0.77397 0.16163,0.34584 0.17526,0.43368 0.17526,1.12971 v 0.75471 l -0.26822,0.54128 c -0.47177,0.95209 -1.24059,1.57221 -2.38803,1.92616 -0.37269,0.11497 -0.61604,0.1449 -1.1875,0.14608 -0.81137,0.002 -1.20369,-0.0774 -1.85137,-0.37299 -1.42503,-0.65044 -2.38857,-1.83138 -2.81645,-3.45194 -0.13778,-0.52183 -0.1612,-0.74215 -0.1612,-1.51676 0,-1.0119 0.13105,-1.66663 0.51346,-2.56528 0.45376,-1.06633 1.52127,-2.33993 2.50306,-2.98628 2.32713,-1.53205 5.35148,-1.71089 7.84375,-0.46382 1.11136,0.5561 2.32623,1.62571 3.02718,2.66524 1.39703,2.07182 1.87726,4.728 1.31853,7.29283 -0.45664,2.09617 -1.70734,4.17056 -3.34148,5.54215 -2.29611,1.92719 -5.1019,2.83499 -8.13284,2.63136 z"
       id="path69"
       transform="scale(0.26458333)" />
  </g>
</svg>
